<svg fill="currentColor" version="1.1" xmlns="http://www.w3.org/2000/svg" width="27" height="32" viewBox="0 0 27 32"><path d="M27.429 4v20q0 0.893-0.607 1.589t-1.536 1.080-1.848 0.571-1.723 0.188-1.723-0.188-1.848-0.571-1.536-1.080-0.607-1.589 0.607-1.589 1.536-1.080 1.848-0.571 1.723-0.188q1.875 0 3.429 0.696v-9.589l-13.714 4.232v12.661q0 0.893-0.607 1.589t-1.536 1.080-1.848 0.571-1.723 0.188-1.723-0.188-1.848-0.571-1.536-1.080-0.607-1.589 0.607-1.589 1.536-1.080 1.848-0.571 1.723-0.188q1.875 0 3.429 0.696v-17.268q0-0.554 0.339-1.009t0.875-0.634l14.857-4.571q0.214-0.071 0.5-0.071 0.714 0 1.214 0.5t0.5 1.214z"></path></svg>