<svg fill="currentColor" version="1.1" xmlns="http://www.w3.org/2000/svg" width="27" height="32" viewBox="0 0 27 32"><path d="M22.839 20.5q0-0.393-0.393-0.482-1.196-0.268-2.107-1.054t-1.429-1.929q-0.125-0.339-0.125-0.446 0-0.268 0.348-0.464t0.768-0.304 0.768-0.366 0.348-0.652q0-0.339-0.33-0.563t-0.688-0.223q-0.214 0-0.571 0.143t-0.554 0.143q-0.071 0-0.214-0.036 0.089-1.696 0.089-2.036 0-1.411-0.304-2.036-0.643-1.393-1.839-2.17t-2.714-0.777q-3.554 0-4.911 2.946-0.304 0.625-0.304 2.036 0 0.339 0.089 2.036-0.071 0.036-0.25 0.036-0.214 0-0.571-0.134t-0.536-0.134q-0.375 0-0.688 0.214t-0.313 0.571q0 0.375 0.348 0.634t0.768 0.366 0.768 0.304 0.348 0.464q0 0.107-0.125 0.446-1.143 2.464-3.536 2.982-0.393 0.089-0.393 0.482 0 0.821 2.446 1.214 0.036 0.089 0.107 0.464t0.205 0.545 0.42 0.17q0.214 0 0.67-0.080t0.705-0.080q0.625 0 1.196 0.268t0.964 0.58 1.027 0.58 1.366 0.268q0.768 0 1.411-0.268t1.027-0.58 0.955-0.58 1.196-0.268q0.25 0 0.705 0.071t0.688 0.071q0.286 0 0.411-0.179t0.196-0.536 0.107-0.446q2.446-0.393 2.446-1.214zM27.429 16q0 3.732-1.839 6.884t-4.991 4.991-6.884 1.839-6.884-1.839-4.991-4.991-1.839-6.884 1.839-6.884 4.991-4.991 6.884-1.839 6.884 1.839 4.991 4.991 1.839 6.884z"></path></svg>