<svg fill="currentColor" version="1.1" xmlns="http://www.w3.org/2000/svg" width="25" height="32" viewBox="0 0 25 32"><path d="M10.661 11.911q-0.179 0.321-4.589 8.143-0.482 0.821-1.161 0.821h-4.268q-0.375 0-0.554-0.304t0-0.643l4.518-8q0.018 0 0-0.018l-2.875-4.982q-0.214-0.393-0.018-0.661 0.161-0.268 0.571-0.268h4.268q0.714 0 1.179 0.804zM25.054 0.446q0.196 0.286 0 0.661l-9.429 16.679v0.018l6 10.982q0.196 0.357 0.018 0.661-0.179 0.268-0.571 0.268h-4.268q-0.75 0-1.179-0.804l-6.054-11.107q0.321-0.571 9.482-16.821 0.446-0.804 1.143-0.804h4.304q0.393 0 0.554 0.268z"></path></svg>