<svg fill="currentColor" version="1.1" xmlns="http://www.w3.org/2000/svg" width="32" height="32" viewBox="0 0 32 32"><path d="M12.696 20.143l8.643-4.464-8.643-4.518v8.982zM16 4.75q3 0 5.795 0.080t4.098 0.17l1.304 0.071q0.018 0 0.304 0.027t0.411 0.054 0.42 0.080 0.509 0.143 0.5 0.232 0.554 0.348 0.518 0.473q0.107 0.107 0.277 0.33t0.518 1.045 0.473 1.804q0.143 1.143 0.223 2.438t0.098 2.027v3.143q0.018 2.589-0.321 5.179-0.125 0.982-0.446 1.777t-0.571 1.098l-0.25 0.304q-0.25 0.268-0.518 0.473t-0.554 0.339-0.5 0.223-0.509 0.143-0.429 0.080-0.411 0.054-0.295 0.027q-4.482 0.339-11.196 0.339-3.696-0.036-6.42-0.116t-3.58-0.134l-0.875-0.071-0.643-0.071q-0.643-0.089-0.973-0.179t-0.911-0.375-1.009-0.732q-0.107-0.107-0.277-0.33t-0.518-1.045-0.473-1.804q-0.143-1.143-0.223-2.438t-0.098-2.027v-3.143q-0.018-2.589 0.321-5.179 0.125-0.982 0.446-1.777t0.571-1.098l0.25-0.304q0.25-0.268 0.518-0.473t0.554-0.348 0.5-0.232 0.509-0.143 0.42-0.080 0.411-0.054 0.304-0.027q4.482-0.321 11.196-0.321z"></path></svg>